# xmcd
#
# Track frame offsets:
#	150
#	32117
#	50812
#	79530
#	93495
#	103897
#	114492
#	131332
#	146017
#	160142
#	176567
#	193000
#	211040
#	223335
#	238882
#	252935
#	297715
#	315602
#	338315
#	342797
#
# Disc length: 4629 seconds
#
# Revision: 5
# Processed by: cddbd v1.5.2PL0 Copyright (c) Steve Scherf et al.
# Submitted via: EasyCDDAExtractor 15.3.0.1
#
DISCID=2e121314
DTITLE=Canned Heat - Uncanned ! [CD1)
DYEAR=1994
DGENRE=Blues
TTITLE0=On The Road Again (Alternate Take)
TTITLE1=Nine Below zero
TTITLE2=TV Mama
TTITLE3=Rollin' And Tumblin'
TTITLE4=Bullfrog Blues
TTITLE5=Evil Is Going On
TTITLE6=Goin' Down Slow
TTITLE7=Dust My Broom
TTITLE8=Help Me
TTITLE9=The Story Of My Life
TTITLE10=The Hunter
TTITLE11=Whiskey And Wimmen'
TTITLE12=Shake Rattle And Roll
TTITLE13=Mean Old World
TTITLE14=Fannie Mae
TTITLE15=Gotta Boogie (The World Boogie)
TTITLE16=My Crime
TTITLE17=On The Road Again
TTITLE18=Commercial 1
TTITLE19=Commercial 2
EXTD=YEAR: 1994
EXTT0=
EXTT1=
EXTT2=
EXTT3=
EXTT4=
EXTT5=
EXTT6=
EXTT7=
EXTT8=
EXTT9=
EXTT10=
EXTT11=
EXTT12=
EXTT13=
EXTT14=
EXTT15=
EXTT16=
EXTT17=
EXTT18=
EXTT19=
PLAYORDER=
